<svg xmlns="http://www.w3.org/2000/svg" width="70" height="70" viewBox="0 0 364 368">
  <g id="Group_19" data-name="Group 19" transform="translate(-524 -1551)">
    <g id="Rectangle_14" data-name="Rectangle 14" transform="translate(524 1551)" fill="#101c26" stroke="#070606" stroke-width="1">
      <rect width="20px" height="20px" stroke="none"/>
      <rect x="0.5" y="0.5" width="20" height="20" fill="none"/>
    </g>
    <g id="logos2" transform="translate(697.378 1726.859)">
      <g id="Group_1" data-name="Group 1" transform="translate(-172.378 -175.859)">
        <path id="Path_2" data-name="Path 2" d="M174.694,321.827c-17.168,9.6-34.215,19.121-51.556,28.811L46.7,257.69l53.348,7.887c9.356,1.384,18.723,2.7,28.057,4.216a7.885,7.885,0,0,1,4.481,2.123c13.825,16.076,27.518,32.266,41.233,48.436A11.486,11.486,0,0,1,174.694,321.827Z" transform="translate(0 16.283)" fill="#6e46a6"/>
        <path id="Path_3" data-name="Path 3" d="M231.606,298.437l24.714-13.811c12.179-6.806,24.34-13.643,36.562-20.371a7.437,7.437,0,0,1,4.505-1.149c15.565,3.141,31.092,6.476,47.369,9.916L271.81,349.651Z" transform="translate(15.961 16.283)" fill="#6e46a6"/>
        <path id="Path_4" data-name="Path 4" d="M179.329,64.9,238.583,0l63.893,41.335c-1.4.628-2.3,1.11-3.258,1.454q-31.045,11.163-62.112,22.268a13.864,13.864,0,0,1-4.708.885c-16.836-.209-33.67-.51-50.5-.794C181.314,65.138,180.737,65.039,179.329,64.9Z" transform="translate(15.961)" fill="#6e46a6"/>
        <path id="Path_5" data-name="Path 5" d="M65.754,122.72l96.166,43.107c-.487,1.142-.838,2.143-1.322,3.074-8.562,16.446-17.187,32.859-25.659,49.351-1.186,2.31-2.325,2.456-4.868,2.316-7.612-.421-11.527-4.538-15.118-10.906C99.24,181.8,82.988,154.242,66.937,126.57c-.617-1.063-1.183-2.156-1.773-3.235Z" transform="translate(4.194 7.872)" fill="#6e46a6"/>
        <path id="Path_6" data-name="Path 6" d="M269.37,257.935c-5.516.643-11.028,1.315-16.548,1.925q-29.876,3.3-59.755,6.57c-16.209,1.778-32.416,3.575-48.635,5.256a4.238,4.238,0,0,1-3.2-1.154q-20.44-23.838-40.7-47.83c-.122-.143-.051-.449-.1-.992l168.881,35.446Z" transform="translate(9.117 11.965)" fill="#6e46a6"/>
        <path id="Path_7" data-name="Path 7" d="M123.938,261.68c-7.184-1.027-13.392-1.887-19.592-2.807-19.435-2.884-38.857-5.859-58.308-8.633-4.08-.581-7.2-1.774-9.973-5.277C25.32,231.385,14.147,218.146,3.144,204.772c-.932-1.132-1.786-2.328-3.144-4.106,8.458,1.746,16.2,3.321,23.924,4.943,19.691,4.135,39.367,8.34,59.076,12.386a12.636,12.636,0,0,1,7.759,4.449c9.4,11.3,18.987,22.456,28.5,33.666C120.609,257.7,121.94,259.3,123.938,261.68Z" transform="translate(0 11.24)" fill="#6e46a6"/>
        <path id="Path_8" data-name="Path 8" d="M340.742,264.689l-61.929-13.012c-1.624-34.772-3.237-69.328-4.851-103.884l.847-.262Z" transform="translate(15.961 10.242)" fill="#6e46a6"/>
        <path id="Path_9" data-name="Path 9" d="M136.2,351.717l88.931-49.676,38.984,49.676Z" transform="translate(10.025 16.283)" fill="#6e46a6"/>
        <path id="Path_10" data-name="Path 10" d="M264.03,133.094l-40.68,64.339c-11.464-30.58-22.7-60.545-34.293-91.47Z" transform="translate(11.185 6.63)" fill="#6e46a6"/>
        <path id="Path_11" data-name="Path 11" d="M271.419,250.086c-10.14-2.084-19.746-4-29.306-6.118-.922-.2-1.892-1.548-2.284-2.576q-6.315-16.547-12.374-33.191a4.928,4.928,0,0,1,.224-3.773q18.646-29.763,37.5-59.393a8.972,8.972,0,0,1,1.29-1.145C268.13,179.5,269.766,214.622,271.419,250.086Z" transform="translate(12.066 9.543)" fill="#6e46a6"/>
        <path id="Path_12" data-name="Path 12" d="M181.468,318.057l-33.455-39.41,127.55-14.007.335.652Z" transform="translate(10.893 16.283)" fill="#6e46a6"/>
        <path id="Path_13" data-name="Path 13" d="M176.578,72.5a12.7,12.7,0,0,1,1.83-.286c17.332.341,34.665.661,51.994,1.128a4.857,4.857,0,0,1,3.577,1.813c9.206,16.086,18.258,32.261,27.741,49.122-1.991-.617-3.331-.975-4.631-1.445-22.681-8.209-45.344-16.47-68.056-24.594a6.889,6.889,0,0,1-4.7-4.648C181.9,86.585,179.233,79.664,176.578,72.5Z" transform="translate(10.856 3.924)" fill="#6e46a6"/>
        <path id="Path_14" data-name="Path 14" d="M230.952,238.594l-75.668-43.6c4.506-8.665,8.9-17.121,13.425-25.819,1.2.415,2.25.687,3.223,1.123,12.6,5.643,25.2,11.283,37.753,17.012a5.7,5.7,0,0,1,2.906,2.535C218.668,205.719,224.6,221.653,230.952,238.594Z" transform="translate(9.211 9.758)" fill="#6e46a6"/>
        <path id="Path_15" data-name="Path 15" d="M257.416,65.582c12.724-4.578,25.437-9.188,38.177-13.72,5.008-1.782,10.276-5.131,15.063-4.586,4.665.532,8.878,5.11,13.27,7.942,6.142,3.96,12.267,7.949,18.238,12.627l-84.471-1.4Z" transform="translate(15.961)" fill="#6e46a6"/>
        <path id="Path_16" data-name="Path 16" d="M140.8,222.723l11.083-21.246c20.979,12.09,41.738,24.053,62.5,36.015l-.251.62Z" transform="translate(8.287 10.412)" fill="#6e46a6"/>
      </g>
    </g>
  </g>
</svg>
